<mxfile host="app.diagrams.net" modified="2023-01-25T09:23:10.745Z" agent="5.0 (Windows NT 10.0; Win64; x64) AppleWebKit/537.36 (KHTML, like Gecko) Chrome/109.0.0.0 Safari/537.36" etag="g1eNHR8NeahMwQ5xmozU" version="20.8.10" type="github">
  <diagram id="kFjjqIVFmXUxEiAX6QHJ" name="Страница 1">
    <mxGraphModel dx="880" dy="452" grid="1" gridSize="10" guides="1" tooltips="1" connect="1" arrows="1" fold="1" page="1" pageScale="1" pageWidth="827" pageHeight="1169" math="0" shadow="0">
      <root>
        <mxCell id="0" />
        <mxCell id="1" parent="0" />
        <mxCell id="zDNTJMhs5QdUefe3Nwv2-1" value="«Академия»&lt;br&gt;&lt;b style=&quot;&quot;&gt;Component&lt;/b&gt;" style="html=1;dropTarget=0;verticalAlign=top;" vertex="1" parent="1">
          <mxGeometry x="200" y="200" width="590" height="350" as="geometry" />
        </mxCell>
        <mxCell id="zDNTJMhs5QdUefe3Nwv2-2" value="" style="shape=module;jettyWidth=8;jettyHeight=4;" vertex="1" parent="zDNTJMhs5QdUefe3Nwv2-1">
          <mxGeometry x="1" width="20" height="20" relative="1" as="geometry">
            <mxPoint x="-27" y="7" as="offset" />
          </mxGeometry>
        </mxCell>
        <mxCell id="zDNTJMhs5QdUefe3Nwv2-6" style="edgeStyle=orthogonalEdgeStyle;rounded=0;orthogonalLoop=1;jettySize=auto;html=1;exitX=1;exitY=0.5;exitDx=0;exitDy=0;entryX=0;entryY=0.5;entryDx=10;entryDy=0;entryPerimeter=0;endArrow=none;endFill=0;" edge="1" parent="1" source="zDNTJMhs5QdUefe3Nwv2-4" target="zDNTJMhs5QdUefe3Nwv2-5">
          <mxGeometry relative="1" as="geometry" />
        </mxCell>
        <mxCell id="zDNTJMhs5QdUefe3Nwv2-14" style="edgeStyle=orthogonalEdgeStyle;rounded=0;orthogonalLoop=1;jettySize=auto;html=1;exitX=0.5;exitY=1;exitDx=0;exitDy=0;entryX=0;entryY=0.75;entryDx=10;entryDy=0;entryPerimeter=0;endArrow=none;endFill=0;" edge="1" parent="1" source="zDNTJMhs5QdUefe3Nwv2-4" target="zDNTJMhs5QdUefe3Nwv2-10">
          <mxGeometry relative="1" as="geometry">
            <Array as="points">
              <mxPoint x="325" y="490" />
              <mxPoint x="395" y="490" />
            </Array>
          </mxGeometry>
        </mxCell>
        <mxCell id="zDNTJMhs5QdUefe3Nwv2-4" value="группа " style="shape=module;align=left;spacingLeft=20;align=center;verticalAlign=top;" vertex="1" parent="1">
          <mxGeometry x="230" y="230" width="190" height="90" as="geometry" />
        </mxCell>
        <mxCell id="zDNTJMhs5QdUefe3Nwv2-11" style="edgeStyle=orthogonalEdgeStyle;rounded=0;orthogonalLoop=1;jettySize=auto;html=1;exitX=0.5;exitY=1;exitDx=0;exitDy=0;entryX=0.404;entryY=0;entryDx=0;entryDy=0;endArrow=none;endFill=0;entryPerimeter=0;" edge="1" parent="1" source="zDNTJMhs5QdUefe3Nwv2-5" target="zDNTJMhs5QdUefe3Nwv2-18">
          <mxGeometry relative="1" as="geometry">
            <Array as="points">
              <mxPoint x="633" y="320" />
              <mxPoint x="633" y="430" />
            </Array>
          </mxGeometry>
        </mxCell>
        <mxCell id="zDNTJMhs5QdUefe3Nwv2-5" value="Администрация" style="shape=module;align=left;spacingLeft=20;align=center;verticalAlign=top;" vertex="1" parent="1">
          <mxGeometry x="520" y="230" width="220" height="90" as="geometry" />
        </mxCell>
        <mxCell id="zDNTJMhs5QdUefe3Nwv2-9" style="edgeStyle=orthogonalEdgeStyle;rounded=0;orthogonalLoop=1;jettySize=auto;html=1;exitX=1;exitY=0.5;exitDx=0;exitDy=0;entryX=0.086;entryY=0.625;entryDx=0;entryDy=0;entryPerimeter=0;endArrow=none;endFill=0;" edge="1" parent="1" source="zDNTJMhs5QdUefe3Nwv2-7" target="zDNTJMhs5QdUefe3Nwv2-8">
          <mxGeometry relative="1" as="geometry" />
        </mxCell>
        <mxCell id="zDNTJMhs5QdUefe3Nwv2-7" value="студент" style="shape=module;align=left;spacingLeft=20;align=center;verticalAlign=top;" vertex="1" parent="1">
          <mxGeometry x="260" y="260" width="70" height="40" as="geometry" />
        </mxCell>
        <mxCell id="zDNTJMhs5QdUefe3Nwv2-8" value="студент" style="shape=module;align=left;spacingLeft=20;align=center;verticalAlign=top;" vertex="1" parent="1">
          <mxGeometry x="344" y="260" width="70" height="40" as="geometry" />
        </mxCell>
        <mxCell id="zDNTJMhs5QdUefe3Nwv2-10" value="Учебная часть" style="shape=module;align=left;spacingLeft=20;align=center;verticalAlign=top;" vertex="1" parent="1">
          <mxGeometry x="230" y="440" width="190" height="90" as="geometry" />
        </mxCell>
        <mxCell id="zDNTJMhs5QdUefe3Nwv2-17" style="edgeStyle=orthogonalEdgeStyle;rounded=0;orthogonalLoop=1;jettySize=auto;html=1;exitX=1;exitY=0.5;exitDx=0;exitDy=0;entryX=0.144;entryY=0.5;entryDx=0;entryDy=0;entryPerimeter=0;endArrow=none;endFill=0;" edge="1" parent="1" source="zDNTJMhs5QdUefe3Nwv2-15" target="zDNTJMhs5QdUefe3Nwv2-16">
          <mxGeometry relative="1" as="geometry" />
        </mxCell>
        <mxCell id="zDNTJMhs5QdUefe3Nwv2-15" value="директор" style="shape=module;align=left;spacingLeft=20;align=center;verticalAlign=top;" vertex="1" parent="1">
          <mxGeometry x="550" y="260" width="80" height="40" as="geometry" />
        </mxCell>
        <mxCell id="zDNTJMhs5QdUefe3Nwv2-16" value="заместитель&#xa;директора" style="shape=module;align=left;spacingLeft=20;align=center;verticalAlign=top;" vertex="1" parent="1">
          <mxGeometry x="640" y="260" width="90" height="40" as="geometry" />
        </mxCell>
        <mxCell id="zDNTJMhs5QdUefe3Nwv2-25" style="edgeStyle=orthogonalEdgeStyle;rounded=0;orthogonalLoop=1;jettySize=auto;html=1;exitX=0;exitY=0.5;exitDx=10;exitDy=0;exitPerimeter=0;endArrow=none;endFill=0;" edge="1" parent="1" source="zDNTJMhs5QdUefe3Nwv2-18" target="zDNTJMhs5QdUefe3Nwv2-10">
          <mxGeometry relative="1" as="geometry" />
        </mxCell>
        <mxCell id="zDNTJMhs5QdUefe3Nwv2-18" value="технический отдел" style="shape=module;align=left;spacingLeft=20;align=center;verticalAlign=top;" vertex="1" parent="1">
          <mxGeometry x="530" y="430" width="250" height="110" as="geometry" />
        </mxCell>
        <mxCell id="zDNTJMhs5QdUefe3Nwv2-21" style="edgeStyle=orthogonalEdgeStyle;rounded=0;orthogonalLoop=1;jettySize=auto;html=1;exitX=1;exitY=0.5;exitDx=0;exitDy=0;entryX=0.043;entryY=0.55;entryDx=0;entryDy=0;entryPerimeter=0;endArrow=none;endFill=0;" edge="1" parent="1" source="zDNTJMhs5QdUefe3Nwv2-19" target="zDNTJMhs5QdUefe3Nwv2-20">
          <mxGeometry relative="1" as="geometry" />
        </mxCell>
        <mxCell id="zDNTJMhs5QdUefe3Nwv2-19" value="учитель" style="shape=module;align=left;spacingLeft=20;align=center;verticalAlign=top;" vertex="1" parent="1">
          <mxGeometry x="260" y="460" width="70" height="40" as="geometry" />
        </mxCell>
        <mxCell id="zDNTJMhs5QdUefe3Nwv2-20" value="МУП" style="shape=module;align=left;spacingLeft=20;align=center;verticalAlign=top;" vertex="1" parent="1">
          <mxGeometry x="340" y="460" width="70" height="40" as="geometry" />
        </mxCell>
        <mxCell id="zDNTJMhs5QdUefe3Nwv2-24" style="edgeStyle=orthogonalEdgeStyle;rounded=0;orthogonalLoop=1;jettySize=auto;html=1;exitX=1;exitY=0.5;exitDx=0;exitDy=0;entryX=0;entryY=0;entryDx=0;entryDy=15;entryPerimeter=0;endArrow=none;endFill=0;" edge="1" parent="1" source="zDNTJMhs5QdUefe3Nwv2-22" target="zDNTJMhs5QdUefe3Nwv2-23">
          <mxGeometry relative="1" as="geometry" />
        </mxCell>
        <mxCell id="zDNTJMhs5QdUefe3Nwv2-22" value="системный&#xa;администратор" style="shape=module;align=left;spacingLeft=20;align=center;verticalAlign=top;" vertex="1" parent="1">
          <mxGeometry x="550" y="455" width="100" height="40" as="geometry" />
        </mxCell>
        <mxCell id="zDNTJMhs5QdUefe3Nwv2-23" value="программист" style="shape=module;align=left;spacingLeft=20;align=center;verticalAlign=top;" vertex="1" parent="1">
          <mxGeometry x="670" y="455" width="100" height="40" as="geometry" />
        </mxCell>
      </root>
    </mxGraphModel>
  </diagram>
</mxfile>
